# xmcd
#
# Track frame offsets: 
#        182
#        18480
#        43850
#
# Disc length: 891 seconds
#
# Revision: 1
# Processed by: cddbd v1.5.2PL0 Copyright (c) Steve Scherf et al.
# Submitted via: ExactAudioCopy v1.0b3
#
DISCID=1f037903
DTITLE=Karl Keaton - Found My Trust  (single)
DYEAR=1991
DGENRE=Other
TTITLE0=Found My Trust  (Single Version)
TTITLE1=Love It  (LP Version)
TTITLE2=Ain't Enough Love  (LP Version)
EXTD=
EXTT0=
EXTT1=
EXTT2=
PLAYORDER=
